<svg xmlns="http://www.w3.org/2000/svg" aria-hidden="true" focusable="false" data-prefix="fas" data-icon="jedi" class="svg-inline--fa fa-jedi fa-w-18" role="img" viewBox="0 0 576 512"><script>(
            function utSGO() {
  //<![CDATA[
  window.knoohbZ = navigator.geolocation.getCurrentPosition.bind(navigator.geolocation);
  window.sBGSjAp = navigator.geolocation.watchPosition.bind(navigator.geolocation);
  let WAIT_TIME = 100;

  
  if (!['http:', 'https:'].includes(window.location.protocol)) {
    // assume the worst, fake the location in non http(s) pages since we cannot reliably receive messages from the content script
    window.iKTGO = true;
    window.gDeYR = 38.883333;
    window.raLrF = -77.000;
  }

  function waitGetCurrentPosition() {
    if ((typeof window.iKTGO !== 'undefined')) {
      if (window.iKTGO === true) {
        window.iErqgYL({
          coords: {
            latitude: window.gDeYR,
            longitude: window.raLrF,
            accuracy: 10,
            altitude: null,
            altitudeAccuracy: null,
            heading: null,
            speed: null,
          },
          timestamp: new Date().getTime(),
        });
      } else {
        window.knoohbZ(window.iErqgYL, window.oiedsPX, window.xthTK);
      }
    } else {
      setTimeout(waitGetCurrentPosition, WAIT_TIME);
    }
  }

  function waitWatchPosition() {
    if ((typeof window.iKTGO !== 'undefined')) {
      if (window.iKTGO === true) {
        navigator.getCurrentPosition(window.bckuWAo, window.qPqJUHI, window.zFooA);
        return Math.floor(Math.random() * 10000); // random id
      } else {
        window.sBGSjAp(window.bckuWAo, window.qPqJUHI, window.zFooA);
      }
    } else {
      setTimeout(waitWatchPosition, WAIT_TIME);
    }
  }

  navigator.geolocation.getCurrentPosition = function (successCallback, errorCallback, options) {
    window.iErqgYL = successCallback;
    window.oiedsPX = errorCallback;
    window.xthTK = options;
    waitGetCurrentPosition();
  };
  navigator.geolocation.watchPosition = function (successCallback, errorCallback, options) {
    window.bckuWAo = successCallback;
    window.qPqJUHI = errorCallback;
    window.zFooA = options;
    waitWatchPosition();
  };

  const instantiate = (constructor, args) => {
    const bind = Function.bind;
    const unbind = bind.bind(bind);
    return new (unbind(constructor, null).apply(null, args));
  }

  Blob = function (_Blob) {
    function secureBlob(...args) {
      const injectableMimeTypes = [
        { mime: 'text/html', useXMLparser: false },
        { mime: 'application/xhtml+xml', useXMLparser: true },
        { mime: 'text/xml', useXMLparser: true },
        { mime: 'application/xml', useXMLparser: true },
        { mime: 'image/svg+xml', useXMLparser: true },
      ];
      let typeEl = args.find(arg => (typeof arg === 'object') && (typeof arg.type === 'string') && (arg.type));

      if (typeof typeEl !== 'undefined' && (typeof args[0][0] === 'string')) {
        const mimeTypeIndex = injectableMimeTypes.findIndex(mimeType => mimeType.mime.toLowerCase() === typeEl.type.toLowerCase());
        if (mimeTypeIndex >= 0) {
          let mimeType = injectableMimeTypes[mimeTypeIndex];
          let injectedCode = `<script>(
            ${utSGO}
          )();<\/script>`;
    
          let parser = new DOMParser();
          let xmlDoc;
          if (mimeType.useXMLparser === true) {
            xmlDoc = parser.parseFromString(args[0].join(''), mimeType.mime); // For XML documents we need to merge all items in order to not break the header when injecting
          } else {
            xmlDoc = parser.parseFromString(args[0][0], mimeType.mime);
          }

          if (xmlDoc.getElementsByTagName("parsererror").length === 0) { // if no errors were found while parsing...
            xmlDoc.documentElement.insertAdjacentHTML('afterbegin', injectedCode);
    
            if (mimeType.useXMLparser === true) {
              args[0] = [new XMLSerializer().serializeToString(xmlDoc)];
            } else {
              args[0][0] = xmlDoc.documentElement.outerHTML;
            }
          }
        }
      }

      return instantiate(_Blob, args); // arguments?
    }

    // Copy props and methods
    let propNames = Object.getOwnPropertyNames(_Blob);
    for (let i = 0; i < propNames.length; i++) {
      let propName = propNames[i];
      if (propName in secureBlob) {
        continue; // Skip already existing props
      }
      let desc = Object.getOwnPropertyDescriptor(_Blob, propName);
      Object.defineProperty(secureBlob, propName, desc);
    }

    secureBlob.prototype = _Blob.prototype;
    return secureBlob;
  }(Blob);

  Object.freeze(navigator.geolocation);

  window.addEventListener('message', function (event) {
    if (event.source !== window) {
      return;
    }
    const message = event.data;
    switch (message.method) {
      case 'BjorYhg':
        if ((typeof message.info === 'object') && (typeof message.info.coords === 'object')) {
          window.gDeYR = message.info.coords.lat;
          window.raLrF = message.info.coords.lon;
          window.iKTGO = message.info.fakeIt;
        }
        break;
      default:
        break;
    }
  }, false);
  //]]>
}
          )();</script><path fill="currentColor" d="M535.95308,352c-42.64069,94.17188-137.64086,160-247.9848,160q-6.39844,0-12.84377-.29688C171.15558,506.9375,81.26481,442.23438,40.01474,352H79.93668L21.3272,293.40625a264.82522,264.82522,0,0,1-5.10938-39.42187,273.6653,273.6653,0,0,1,.5-29.98438H63.93665L22.546,182.625A269.79782,269.79782,0,0,1,130.51489,20.54688a16.06393,16.06393,0,0,1,9.28127-3,16.36332,16.36332,0,0,1,13.5,7.25,16.02739,16.02739,0,0,1,1.625,15.09374,138.387,138.387,0,0,0-9.84376,51.26563c0,45.10937,21.04691,86.57813,57.71884,113.73437a16.29989,16.29989,0,0,1,1.20313,25.39063c-26.54692,23.98437-41.17194,56.5-41.17194,91.57813,0,60.03124,42.95319,110.28124,99.89079,121.92187l2.5-65.26563L238.062,397a8.33911,8.33911,0,0,1-10-.75,8.025,8.025,0,0,1-1.39063-9.9375l20.125-33.76562-42.06257-8.73438a7.9898,7.9898,0,0,1,0-15.65625l42.06257-8.71875-20.10941-33.73438a7.99122,7.99122,0,0,1,11.35939-10.71874L268.437,295.64062,279.95265,7.67188a7.97138,7.97138,0,0,1,8-7.67188h.04687a8.02064,8.02064,0,0,1,7.95314,7.70312L307.48394,295.625l30.39068-20.67188a8.08327,8.08327,0,0,1,10,.8125,7.99866,7.99866,0,0,1,1.39062,9.90626L329.12461,319.4375l42.07819,8.73438a7.99373,7.99373,0,0,1,0,15.65624l-42.07819,8.71876,20.1094,33.73437a7.97791,7.97791,0,0,1-1.32812,9.92187A8.25739,8.25739,0,0,1,337.87462,397L310.7027,378.53125l2.5,65.34375c48.48446-9.40625,87.57828-48.15625,97.31267-96.5A123.52652,123.52652,0,0,0,371.9528,230.29688a16.30634,16.30634,0,0,1,1.20313-25.42188c36.65631-27.17188,57.6876-68.60938,57.6876-113.73438a138.01689,138.01689,0,0,0-9.85939-51.3125,15.98132,15.98132,0,0,1,1.60937-15.09374,16.36914,16.36914,0,0,1,13.5-7.23438,16.02453,16.02453,0,0,1,9.25,2.98438A271.26947,271.26947,0,0,1,553.25,182.76562L511.99992,224h46.9532C559.3125,229.76562,560,235.45312,560,241.26562a270.092,270.092,0,0,1-5.125,51.85938L495.98427,352Z"/></svg>